# xmcd
#
# Track frame offsets: 
#        150
#        36647
#        60322
#        85652
#        100762
#        138640
#        157367
#        178237
#        197267
#        216127
#        235027
#        255062
#
# Disc length: 3726 seconds
#
# Revision: 2
# Processed by: cddbd v1.5.2PL0 Copyright (c) Steve Scherf et al.
# Submitted via: ExactAudioCopy v0.95b4
#
DISCID=9e0e8c0c
DTITLE=European Jazz Trio - Europa (feat. Jesse van Ruller)
DYEAR=2002
DGENRE=Jazz
TTITLE0=Europa <T. Coster, C. Santana>
TTITLE1=Zingaro <A. C. Jobim>
TTITLE2=Maria (West Side Story) <L. Bernstein>
TTITLE3=Thank You For The Music <B. Andersson, B. Ulvaeus>
TTITLE4=Concierto de Aranjuez <V. J. Rodrigo>
TTITLE5=Both Sides Now <J. Mitchell>
TTITLE6=Phase Dance <L. Mays, P. Metheny>
TTITLE7=Tell Him <W. Afanasieff, D. Foster, L. Thompson>
TTITLE8=Blackbird <J. Lennon, P. McCartney>
TTITLE9=Tears In Heaven <E. Clapton, W. Jennings>
TTITLE10=I Say A Little Prayer <B. Bacharach, H. David>
TTITLE11=What A Wondeful World <G. Douglas, R. Thiele, G. D. Weiss>
EXTD=YEAR: 2002
EXTT0=
EXTT1=
EXTT2=
EXTT3=
EXTT4=
EXTT5=
EXTT6=
EXTT7=
EXTT8=
EXTT9=
EXTT10=
EXTT11=
PLAYORDER=
